HIERARCHY
ROOT Hips
{
	OFFSET 0.000000 0.000000 0.000000 
	CHANNELS 6 Xposition Yposition Zposition Zrotation Yrotation Xrotation
	JOINT LeftUpLeg
	{
		OFFSET 1.363060 -1.794630 0.839290 
		CHANNELS 3 Zrotation Yrotation Xrotation
		JOINT LeftLeg
		{
			OFFSET 2.448110 -6.726130 0.000000 
			CHANNELS 3 Zrotation Yrotation Xrotation
			JOINT LeftFoot
			{
				OFFSET 2.562200 -7.039590 0.000000 
				CHANNELS 3 Zrotation Yrotation Xrotation
				JOINT LeftToeBase
				{
					OFFSET 0.157640 -0.433110 2.322550 
					CHANNELS 3 Zrotation Yrotation Xrotation
					End Site
					{
						OFFSET 0.000000 0.000000 0.000000 
					}
				}
			}
		}
	}
	JOINT RightUpLeg
	{
		OFFSET -1.305520 -1.794630 0.839290 
		CHANNELS 3 Zrotation Yrotation Xrotation
		JOINT RightLeg
		{
			OFFSET -2.542530 -6.985550 0.000000 
			CHANNELS 3 Zrotation Yrotation Xrotation
			JOINT RightFoot
			{
				OFFSET -2.568260 -7.056230 0.000000 
				CHANNELS 3 Zrotation Yrotation Xrotation
				JOINT RightToeBase
				{
					OFFSET -0.164730 -0.452590 2.363150 
					CHANNELS 3 Zrotation Yrotation Xrotation
					End Site
					{
						OFFSET 0.000000 0.000000 0.000000 
					}
				}
			}
		}
	}
	JOINT Spine
	{
		OFFSET 0.028270 2.035590 -0.193380 
		CHANNELS 3 Zrotation Yrotation Xrotation
		JOINT Spine1
		{
			OFFSET 0.056720 2.048850 -0.042750 
			CHANNELS 3 Zrotation Yrotation Xrotation
			JOINT Neck1
			{
				OFFSET -0.054170 1.746240 0.172020 
				CHANNELS 3 Zrotation Yrotation Xrotation
				JOINT Head
				{
					OFFSET 0.104070 1.761360 -0.123970 
					CHANNELS 3 Zrotation Yrotation Xrotation
					End Site
					{
						OFFSET 0.000000 0.000000 0.000000 
					}
				}
			}
			JOINT LeftArm
			{
				OFFSET 3.362410 1.200890 -0.311210 
				CHANNELS 3 Zrotation Yrotation Xrotation
				JOINT LeftForeArm
				{
					OFFSET 4.983000 -0.000000 -0.000000 
					CHANNELS 3 Zrotation Yrotation Xrotation
					JOINT LeftHand
					{
						OFFSET 3.483560 -0.000000 -0.000000 
						CHANNELS 3 Zrotation Yrotation Xrotation
						JOINT LeftHandIndex1
						{
							OFFSET 0.715260 -0.000000 -0.000000 
							CHANNELS 3 Zrotation Yrotation Xrotation
							End Site
							{
								OFFSET 0.000000 0.000000 0.000000 
							}
						}
					}
				}
			}
			JOINT RightArm
			{
				OFFSET -3.136600 1.374050 -0.404650 
				CHANNELS 3 Zrotation Yrotation Xrotation
				JOINT RightForeArm
				{
					OFFSET -5.241900 -0.000000 -0.000000 
					CHANNELS 3 Zrotation Yrotation Xrotation
					JOINT RightHand
					{
						OFFSET -3.444170 -0.000000 -0.000000 
						CHANNELS 3 Zrotation Yrotation Xrotation
						JOINT RightHandIndex1
						{
							OFFSET -0.622530 -0.000000 -0.000000 
							CHANNELS 3 Zrotation Yrotation Xrotation
							End Site
							{
								OFFSET 0.000000 0.000000 0.000000 
							}
						}
					}
				}
			}
		}
	}
}
MOTION
Frames: 13
Frame Time: 0.041667
0.123742 18.758372 8.866044 -11.619141 -11.788260 16.366247 -27.912161 -59.449209 9.738997 1.523392 6.192857 21.247851 16.119565 23.565288 -79.817275 4.086300 -12.274300 -36.709400 7.520188 2.656468 -1.353416 0.652754 0.865803 3.230457 0.396134 -0.422062 6.542484 0.000000 0.000000 0.000000 48.956563 -8.640898 24.814130 -13.705913 -3.684028 -18.926771 24.240993 -17.669185 15.905461 5.193100 -7.567100 6.366100 -67.568128 10.635343 53.963293 156.768371 -29.964957 -113.035678 -0.355144 1.076537 -50.047666 -7.125000 0.000000 0.000000 39.236909 -6.004385 45.354362 -158.546218 27.884608 -114.061954 3.411368 1.410663 -45.137601 7.125000 0.000000 0.000000 
0.111761 18.752432 8.881549 -11.401293 -12.145033 16.170544 -28.386881 -59.451269 10.095032 1.565972 6.174155 21.192509 16.348366 23.686602 -80.258996 4.102400 -12.295500 -36.785400 7.470462 2.675490 -1.279486 0.650786 0.908152 3.246316 0.408380 -0.380688 6.559644 0.000000 0.000000 0.000000 47.644173 -9.169963 26.589841 -13.277113 -3.641374 -19.515678 23.403097 -17.840629 16.692293 4.903700 -7.580200 6.603200 -73.200177 11.833472 52.616843 157.085530 -29.921440 -113.101148 -0.286482 1.032282 -48.385659 -7.125000 0.000000 0.000000 45.783386 -5.995745 43.137787 -159.265630 27.530060 -114.282568 3.367929 1.244354 -43.495387 7.125000 0.000000 0.000000 
0.103504 18.742061 8.891316 -11.543018 -12.490585 16.186967 -29.110499 -60.017512 11.184587 1.743781 6.186041 21.130841 17.171172 23.489549 -81.815386 3.993200 -12.151300 -36.269400 7.452986 2.681637 -1.248725 0.649520 0.924669 3.251598 0.413436 -0.365340 6.567747 0.000000 0.000000 0.000000 47.278212 -9.266324 27.271717 -13.222424 -3.572823 -19.689542 23.606853 -17.274736 15.544357 5.000800 -7.397500 6.272000 -79.556597 12.465029 51.179403 157.378694 -29.926440 -113.194957 -0.272589 0.973209 -46.454243 -7.125000 0.000000 0.000000 54.587611 -5.895135 40.284846 -159.762705 27.664183 -114.329849 3.301274 1.151954 -42.140166 7.125000 0.000000 0.000000 
0.104310 18.729274 8.892725 -12.109809 -12.766054 16.691397 -29.954882 -61.390808 12.911941 2.074872 6.274103 21.083058 18.570858 22.753611 -84.640964 3.728600 -11.790200 -34.993700 7.487870 2.667912 -1.285358 0.649125 0.899935 3.240178 0.406970 -0.391680 6.561667 0.000000 0.000000 0.000000 48.211976 -8.807342 26.147057 -13.737909 -3.606500 -19.398968 24.151324 -17.101832 15.181448 5.180000 -7.331600 6.137800 -86.441410 12.615234 49.263747 157.615422 -30.033982 -113.254678 -0.251175 0.877019 -45.302729 -7.125000 0.000000 0.000000 62.272824 -5.077514 38.098148 -160.332087 27.618564 -114.440682 3.299043 1.083680 -42.017897 7.125000 0.000000 0.000000 
0.100786 18.712359 8.903398 -12.504092 -12.491812 16.289404 -32.455401 -62.274099 16.503342 2.512227 6.292967 21.125985 19.702730 22.182350 -86.916724 3.557500 -11.547100 -34.147900 7.518555 2.652405 -1.321330 0.650202 0.874879 3.227940 0.400182 -0.418137 6.554551 0.000000 0.000000 0.000000 48.705341 -8.672193 25.511516 -13.934286 -3.718393 -19.729221 24.385591 -17.377251 15.751349 5.287900 -7.418600 6.273800 -93.184271 12.044886 46.746353 157.899186 -30.188133 -113.298053 -0.206754 0.731902 -45.850272 -7.125000 0.000000 0.000000 70.296679 -4.347479 35.149283 -160.597334 27.985608 -114.434042 3.319301 1.067564 -43.099872 7.125000 0.000000 0.000000 
0.098370 18.696853 8.904908 -12.998987 -12.192697 16.390533 -34.567479 -63.438273 19.689381 2.916001 6.343487 21.124124 20.743391 21.323754 -89.371481 3.303700 -11.171200 -32.859500 7.582831 2.622267 -1.403143 0.652709 0.821075 3.203464 0.385280 -0.473656 6.537149 0.000000 0.000000 0.000000 50.052723 -8.059246 23.817966 -14.267090 -3.768656 -19.742480 23.954039 -17.451103 16.110004 5.257800 -7.468800 6.311800 -99.316582 10.468081 44.007103 157.661888 -30.891593 -113.103893 -0.175432 0.552279 -47.635829 -7.125000 0.000000 0.000000 77.476854 -3.506253 31.302196 -160.954785 28.194093 -114.436822 3.362889 1.197402 -44.390618 7.125000 0.000000 0.000000 
0.097765 18.686382 8.901888 -13.154358 -12.194080 16.292188 -36.417207 -64.410734 22.231784 3.207908 6.371039 21.085255 21.451402 20.419311 -91.286435 3.065200 -10.799900 -31.607900 7.559222 2.628374 -1.370399 0.652845 0.838755 3.209370 0.390597 -0.456369 6.544034 0.000000 0.000000 0.000000 49.633554 -8.190973 24.545100 -14.100801 -3.718707 -19.912196 24.431930 -17.887891 17.157621 5.347800 -7.534300 6.734500 -103.897601 8.113218 42.516220 157.323413 -31.668932 -112.887299 -0.169547 0.386898 -50.035575 -7.125000 0.000000 0.000000 81.956404 -2.169879 29.640914 -160.827303 28.749553 -114.292374 3.397213 1.220151 -44.984680 7.125000 0.000000 0.000000 
0.105518 18.683362 8.890309 -13.077508 -12.099681 16.092251 -37.522668 -64.569496 23.413065 3.311161 6.372568 21.101760 21.626261 20.001621 -91.766257 2.987000 -10.674000 -31.188100 7.581229 2.618407 -1.395109 0.653206 0.821842 3.201034 0.385289 -0.474585 6.539650 0.000000 0.000000 0.000000 49.982003 -7.997652 24.046590 -14.266236 -3.727028 -20.133524 23.783599 -17.698262 17.626119 5.188200 -7.443500 6.662600 -105.680017 6.750741 42.913675 156.792823 -32.349174 -112.648269 -0.211339 0.323309 -52.192319 -7.125000 0.000000 0.000000 81.806947 -2.460346 31.936802 -160.226542 29.402077 -114.071879 3.337367 1.210361 -44.354175 7.125000 0.000000 0.000000 
0.120218 18.688698 8.875105 -13.066757 -11.949159 16.099563 -37.333121 -64.269670 23.104515 3.243603 6.349435 21.074648 21.457518 20.187476 -91.239587 3.042700 -10.763900 -31.487800 7.636925 2.596959 -1.466784 0.654340 0.777757 3.182651 0.372190 -0.519536 6.524717 0.000000 0.000000 0.000000 50.815209 -7.494777 22.457134 -14.598332 -3.801424 -20.175318 24.283488 -17.786939 18.393947 5.317200 -7.409600 6.717900 -103.201309 6.231147 45.550742 156.254363 -32.653689 -112.461139 -0.264366 0.388047 -54.467161 -7.125000 0.000000 0.000000 78.267805 -3.407546 36.344892 -159.860797 29.494358 -114.016084 3.317853 1.084175 -45.012130 7.125000 0.000000 0.000000 
0.121124 18.701384 8.873897 -12.946630 -11.849319 16.409117 -36.039254 -64.107226 21.528318 3.048727 6.311623 20.962466 21.106899 20.658604 -90.277866 3.148500 -10.931600 -32.049600 7.648756 2.593482 -1.491501 0.655549 0.765385 3.179412 0.368590 -0.530346 6.517586 0.000000 0.000000 0.000000 50.944899 -7.501060 22.019096 -14.286092 -3.828632 -20.032175 24.329281 -18.184687 19.684471 5.298700 -7.471000 7.156700 -99.411421 5.853433 48.207043 156.073654 -32.547060 -112.431682 -0.266254 0.487738 -54.593235 -7.125000 0.000000 0.000000 72.450337 -3.505394 41.032876 -159.564176 29.324346 -114.014011 3.296777 0.949263 -44.753384 7.125000 0.000000 0.000000 
0.102900 18.716588 8.872789 -12.656933 -11.604869 17.049004 -33.272971 -63.630069 17.925512 2.626317 6.276668 20.894268 20.209720 21.319942 -88.088580 3.329300 -11.209900 -32.991100 7.689367 2.582566 -1.553696 0.656155 0.732793 3.168925 0.358617 -0.561409 6.503274 0.000000 0.000000 0.000000 51.877381 -7.120928 20.544527 -14.261620 -3.820905 -19.183440 23.701627 -17.699610 18.426160 5.204100 -7.412500 6.731900 -94.519334 6.336788 49.993004 156.028838 -32.236367 -112.404675 -0.163633 0.603180 -51.614423 -7.125000 0.000000 0.000000 66.208688 -3.647879 43.750791 -159.259754 29.161377 -113.925264 3.220597 1.074467 -42.187945 7.125000 0.000000 0.000000 
0.082864 18.729073 8.859298 -12.102260 -11.634916 16.821426 -30.642191 -62.499226 14.253872 2.155016 6.210581 20.892786 18.852626 22.223827 -85.108692 3.596600 -11.603400 -34.343000 7.588302 2.626205 -1.427055 0.653316 0.814402 3.205200 0.382045 -0.477167 6.529490 0.000000 0.000000 0.000000 50.085108 -8.224643 23.435259 -13.584664 -3.688762 -19.212973 23.705476 -17.391448 16.809235 5.144300 -7.372400 6.476400 -88.830855 5.991705 51.294639 156.123062 -31.873220 -112.485910 -0.142708 0.733403 -48.846963 -7.125000 0.000000 0.000000 59.954716 -2.498387 45.005578 -158.940753 28.968508 -113.866191 3.207238 1.109069 -41.319582 7.125000 0.000000 0.000000 
0.071789 18.737732 8.845101 -11.696469 -11.575256 16.496205 -29.694101 -61.795415 12.738929 1.917180 6.155222 20.875025 18.029392 22.912731 -83.455667 3.789500 -11.874900 -35.290800 7.531073 2.649885 -1.355856 0.652205 0.859611 3.224911 0.395024 -0.430651 6.544089 0.000000 0.000000 0.000000 48.748814 -8.860209 25.207647 -13.133785 -3.624987 -19.491166 23.767291 -17.539285 16.594391 5.086000 -7.435900 6.552500 -83.520931 6.475139 51.394279 156.350887 -31.378615 -112.605740 -0.103968 0.825789 -47.601823 -7.125000 0.000000 0.000000 53.868836 -1.938368 45.174221 -158.627928 28.789351 -113.843881 3.232356 1.137075 -42.070039 7.125000 0.000000 0.000000 
